<svg id="Camada_1" data-name="Camada 1" xmlns="http://www.w3.org/2000/svg" viewBox="0 0 398.68 204"><defs><style>.cls-1{fill:#f7c592;}.cls-2{fill:#dca97c;}.cls-3{fill:#967b57;}.cls-4{fill:#675b4c;}.cls-5{fill:#ffdb81;}.cls-6{fill:#ffeb9a;}.cls-7{fill:#dc5e49;}.cls-8{fill:#1d1d1b;}</style></defs><path class="cls-1" d="M185.11,86.4a6.65,6.65,0,0,1-6.65,6.65h-.06a41.88,41.88,0,0,1-7.72,22.17h-.31v8.87H102v-8.87a41.88,41.88,0,0,1-7.72-22.17H94.2a6.65,6.65,0,0,1,0-13.3h1.48a42.13,42.13,0,0,1,81.3,0h1.48A6.65,6.65,0,0,1,185.11,86.4Z" transform="translate(-34.33 -37.61)"/><path class="cls-2" d="M164.06,103.13a28.82,28.82,0,0,1-55.46,0,4.43,4.43,0,1,1,8.53-2.42,20,20,0,0,0,38.4,0,4.43,4.43,0,1,1,8.53,2.42Z" transform="translate(-34.33 -37.61)"/><path class="cls-3" d="M140.76,42.05v13.3a4.43,4.43,0,1,1-8.86,0V42.05a4.43,4.43,0,1,1,8.86,0Z" transform="translate(-34.33 -37.61)"/><path class="cls-4" d="M131.45,75.31A4.43,4.43,0,0,1,127,79.75h-.89a4.44,4.44,0,0,1,0-8.87H127A4.43,4.43,0,0,1,131.45,75.31Zm15.08-4.43h-.89a4.43,4.43,0,1,0,0,8.86h.89a4.43,4.43,0,1,0,0-8.86Z" transform="translate(-34.33 -37.61)"/><path class="cls-5" d="M238.33,121.88V232.75a8.87,8.87,0,0,1-8.87,8.86H43.2a8.87,8.87,0,0,1-8.87-8.86V121.88A8.87,8.87,0,0,1,43.2,113H229.46A8.87,8.87,0,0,1,238.33,121.88Z" transform="translate(-34.33 -37.61)"/><path class="cls-6" d="M229.46,113H43.2a8.87,8.87,0,0,0-8.87,8.87V232.75a8.87,8.87,0,0,0,8.87,8.86H229.46a8.87,8.87,0,0,0,8.87-8.86V121.88A8.87,8.87,0,0,0,229.46,113Zm0,119.74H43.2V121.88H229.46V232.75Z" transform="translate(-34.33 -37.61)"/><path class="cls-7" d="M219,159.57v8.87a17.78,17.78,0,0,1-13.31,17.18v9.43a4.43,4.43,0,1,1-8.86,0v-9.43a17.78,17.78,0,0,1-13.31-17.18v-8.87a4.44,4.44,0,0,1,8.87,0v8.87a8.87,8.87,0,0,0,17.74,0v-8.87a4.44,4.44,0,0,1,8.87,0Zm-40.8,26.61a13.32,13.32,0,0,1-13.31,13.3H147.2a4.43,4.43,0,0,1-4.44-4.43V159.57a4.43,4.43,0,0,1,4.44-4.43h13.3a13.31,13.31,0,0,1,13.3,13.3,13.14,13.14,0,0,1-1.72,6.53A13.3,13.3,0,0,1,178.24,186.18Zm-26.61-13.3h8.87a4.44,4.44,0,0,0,0-8.87h-8.87Zm17.74,13.3a4.43,4.43,0,0,0-4.44-4.43h-13.3v8.86h13.3A4.43,4.43,0,0,0,169.37,186.18Zm-80.27,0a13.31,13.31,0,0,1-13.3,13.3H58.06a4.43,4.43,0,0,1-4.44-4.43V159.57a4.43,4.43,0,0,1,4.44-4.43h13.3A13.3,13.3,0,0,1,83,175,13.31,13.31,0,0,1,89.1,186.18Zm-26.61-13.3h8.87a4.44,4.44,0,0,0,0-8.87H62.49Zm17.74,13.3a4.43,4.43,0,0,0-4.43-4.43H62.49v8.86h13.3A4.43,4.43,0,0,0,80.23,186.18Zm52.33-13.3v22.17a4.44,4.44,0,0,1-8.87,0v-8.87H106v8.87a4.44,4.44,0,0,1-8.87,0V172.88a17.74,17.74,0,0,1,35.48,0Zm-8.87,0a8.87,8.87,0,0,0-17.74,0v4.43h17.74Z" transform="translate(-34.33 -37.61)"/><path class="cls-2" d="M105.29,117.44h0A15.52,15.52,0,0,1,89.76,133H85.33a15.52,15.52,0,0,1-15.52-15.52h0a15.52,15.52,0,0,1,15.52-15.52h4.43A15.52,15.52,0,0,1,105.29,117.44Zm82-15.52H182.9a15.52,15.52,0,0,0-15.53,15.52h0A15.52,15.52,0,0,0,182.9,133h4.43a15.52,15.52,0,0,0,15.52-15.52h0A15.52,15.52,0,0,0,187.33,101.92Z" transform="translate(-34.33 -37.61)"/><path class="cls-8" d="M304.73,165.39h-2.94q.27-4.24.27-6.81,0-7.68-3.18-10.7a11.22,11.22,0,0,0-8-3q-6.48,0-13.45,5.26t-12,16.4a55.26,55.26,0,0,0-5,22.9q0,11.39,4.66,17.46t11.68,6.07q9.54,0,17.49-11.44a2.21,2.21,0,0,1,1.69-1.14,1.64,1.64,0,0,1,1.19.46,1.41,1.41,0,0,1,.49,1.06c0,1-1.2,2.91-3.62,5.78a29.5,29.5,0,0,1-9.12,7.16A23.34,23.34,0,0,1,274,217.68a22.52,22.52,0,0,1-20.48-12.91A33.07,33.07,0,0,1,250.48,190a50.55,50.55,0,0,1,6.23-23.75Q263,154.44,272.32,148t18.3-6.42a29.27,29.27,0,0,1,6.38.7q1.35.33,11.22,3.76A69.48,69.48,0,0,0,304.73,165.39Z" transform="translate(-34.33 -37.61)"/><path class="cls-8" d="M344.44,160.27l3.59-.76L344,173.29q-2.46,8.22-4.63,19a50.22,50.22,0,0,0-1.2,7.52c0,1.13.45,1.69,1.36,1.69a6.47,6.47,0,0,0,2.78-1.15,35.47,35.47,0,0,0,6.48-5l1.75,2.13q-6.21,5.66-8,6.86a29.61,29.61,0,0,1-6.64,3.54,11.61,11.61,0,0,1-4,.76,3,3,0,0,1-2.13-.65A2.48,2.48,0,0,1,329,206a8.24,8.24,0,0,1,.44-2.23l2.18-7.41A46.22,46.22,0,0,1,320.47,206a14,14,0,0,1-7.3,2.51,5.72,5.72,0,0,1-4.84-2.23,12.56,12.56,0,0,1-2.29-7.85,32.48,32.48,0,0,1,3.08-12.85,47.52,47.52,0,0,1,8.25-12.86,35,35,0,0,1,10.89-8.49,26.77,26.77,0,0,1,11.33-2.07,30.53,30.53,0,0,1,3.54.21Zm-6.76,8.33a25.5,25.5,0,0,0-4.95-.6,14,14,0,0,0-8.55,2.7q-3.66,2.7-6.79,9.7a34.06,34.06,0,0,0-3.13,14q0,3.7,1.26,5.34a3.93,3.93,0,0,0,3.26,1.63q3.77,0,8.06-4.06t6.32-11.68Z" transform="translate(-34.33 -37.61)"/><path class="cls-8" d="M378.05,161.19q4.84,0,7.49,1.88t2.64,4.33a3.42,3.42,0,0,1-1.12,2.56,3.69,3.69,0,0,1-2.69,1.09,3.4,3.4,0,0,1-1.8-.46,10.07,10.07,0,0,1-2.18-2.31q-2.67-3.54-5.28-3.54a5.43,5.43,0,0,0-3.95,1.71,5.77,5.77,0,0,0-1.72,4.27,9.17,9.17,0,0,0,1.09,4.32,38.08,38.08,0,0,0,5.5,6.78q6,6.42,6.05,12.18t-4.9,10.1q-4.9,4.32-12.64,4.32-6.48,0-9.64-2.64a8.16,8.16,0,0,1-3.16-6.51,4.4,4.4,0,0,1,1.2-3.16,3.93,3.93,0,0,1,2.94-1.25,3.67,3.67,0,0,1,2.61,1,3.11,3.11,0,0,1,1.09,2.36c0,.37,0,.84-.07,1.42s0,.87,0,1.2A3.83,3.83,0,0,0,361,203.9a6,6,0,0,0,4,1.25,12.47,12.47,0,0,0,5.16-1,8.15,8.15,0,0,0,4.72-7.1,7.59,7.59,0,0,0-1.17-3.92,50.82,50.82,0,0,0-5.26-6.47q-5.67-6.32-5.66-12.14a12.37,12.37,0,0,1,4.3-9.33A15.48,15.48,0,0,1,378.05,161.19Z" transform="translate(-34.33 -37.61)"/><path class="cls-8" d="M427,160.27l3.6-.76-4.09,13.78q-2.45,8.22-4.63,19a50.22,50.22,0,0,0-1.2,7.52c0,1.13.46,1.69,1.36,1.69a6.47,6.47,0,0,0,2.78-1.15,35.47,35.47,0,0,0,6.48-5l1.75,2.13q-6.21,5.66-8,6.86a29.4,29.4,0,0,1-6.64,3.54,11.56,11.56,0,0,1-4,.76,3,3,0,0,1-2.13-.65,2.48,2.48,0,0,1-.7-1.91,8.15,8.15,0,0,1,.43-2.23l2.18-7.41A45.85,45.85,0,0,1,403,206a14,14,0,0,1-7.29,2.51,5.72,5.72,0,0,1-4.85-2.23,12.56,12.56,0,0,1-2.29-7.85,32.66,32.66,0,0,1,3.08-12.85,47.52,47.52,0,0,1,8.25-12.86,35,35,0,0,1,10.89-8.49,26.8,26.8,0,0,1,11.33-2.07,30.28,30.28,0,0,1,3.54.21Zm-6.75,8.33a25.59,25.59,0,0,0-5-.6,14,14,0,0,0-8.55,2.7c-2.43,1.8-4.7,5-6.78,9.7a33.9,33.9,0,0,0-3.13,14c0,2.47.41,4.25,1.25,5.34a3.94,3.94,0,0,0,3.27,1.63q3.75,0,8.06-4.06t6.32-11.68Z" transform="translate(-34.33 -37.61)"/><path class="cls-8" d="M216.82,227.54l.91.13c-.07,3.76-.78,6.34-2.15,7.73a2.19,2.19,0,0,1-1.84.73,4.21,4.21,0,0,1-2.27-1.36,13.5,13.5,0,0,1-3.55-6.54c-.77-3-.37-5.36,1.22-7a2.51,2.51,0,0,1,1.69-.87,2.15,2.15,0,0,1,1.6.69,3.65,3.65,0,0,1,1,2,8.61,8.61,0,0,1-.33,3.45c-.19.72-.69,2.17-1.49,4.35a11.43,11.43,0,0,0,1.12,1.31,2.77,2.77,0,0,0,1.45.89,1.34,1.34,0,0,0,1.1-.45,3.59,3.59,0,0,0,.78-1.34A21.54,21.54,0,0,0,216.82,227.54ZM211,230a12.93,12.93,0,0,0,1-4.69,2.79,2.79,0,0,0-.73-2,1.65,1.65,0,0,0-1.07-.54,1.23,1.23,0,0,0-1,.4,1.89,1.89,0,0,0-.51,1.19,4.51,4.51,0,0,0,.41,2.25A17,17,0,0,0,211,230Z" transform="translate(-34.33 -37.61)"/><path class="cls-8" d="M214.86,221l-.83-.11a13.66,13.66,0,0,1,.47-3.95,5.4,5.4,0,0,1,1.08-2.22.87.87,0,0,1,.48-.28.53.53,0,0,1,.42.17,6.21,6.21,0,0,1,.73,1.09c.49.84.89,1.49,1.21,1.94-.07-3.8.39-6.21,1.38-7.21a1.09,1.09,0,0,1,.8-.38,1.33,1.33,0,0,1,.88.46,10.39,10.39,0,0,1,1.35,2,17,17,0,0,1,.31-4.33,4.88,4.88,0,0,1,1-2.14,1.43,1.43,0,0,1,1-.49,1.71,1.71,0,0,1,1.15.59,5,5,0,0,1,.73,1c.24.4.95,1.66,2.12,3.8a30.32,30.32,0,0,0,2.75,4.55c.27.27.51.29.73.07a1.07,1.07,0,0,0,.29-.58,15.6,15.6,0,0,0,.18-2.66l.82,0c0,.3-.06.88-.09,1.76a16.52,16.52,0,0,1-.22,2.36,3.43,3.43,0,0,1-.74,1.57,1.11,1.11,0,0,1-1,.28,2.13,2.13,0,0,1-1.24-.68,8.88,8.88,0,0,1-1.17-1.48c-.4-.62-1.23-2.07-2.49-4.37a19.35,19.35,0,0,0-1.84-3c-.27-.26-.52-.28-.76,0a2.53,2.53,0,0,0-.48,1.09,8.71,8.71,0,0,0-.18,3.2,7.86,7.86,0,0,0,1.15,2.77q2.15,3.69,3.62,5.91l-1.66,1.69-5.53-8.93a10.92,10.92,0,0,0-.72-1.08.56.56,0,0,0-.38-.19.51.51,0,0,0-.37.17,2.94,2.94,0,0,0-.48,1.49,9.2,9.2,0,0,0,0,3.31,10.67,10.67,0,0,0,1.54,3.25l3.12,4.88L222.3,228,217.94,221c-1.25-2-1.95-3.09-2.09-3.23s-.34-.2-.48-.06C215.06,218,214.89,219.12,214.86,221Z" transform="translate(-34.33 -37.61)"/></svg>