<svg id="Camada_1" data-name="Camada 1" xmlns="http://www.w3.org/2000/svg" viewBox="0 0 390.66 208.53"><defs><style>.cls-1{fill:#f7c592;}.cls-2{fill:#dca97c;}.cls-3{fill:#967b57;}.cls-4{fill:#675b4c;}.cls-5{fill:#ffdb81;}.cls-6{fill:#ffeb9a;}.cls-7{fill:#dc5e49;}.cls-8{font-size:111.55px;}.cls-8,.cls-9{fill:#1d1d1b;font-family:MonotypeCorsiva, Monotype Corsiva;}.cls-9{font-size:34.2px;}</style></defs><path class="cls-1" d="M185.11,86.4a6.65,6.65,0,0,1-6.65,6.65h-.06a41.88,41.88,0,0,1-7.72,22.17h-.31v8.87H102v-8.87a41.88,41.88,0,0,1-7.72-22.17H94.2a6.65,6.65,0,0,1,0-13.3h1.48a42.13,42.13,0,0,1,81.3,0h1.48A6.65,6.65,0,0,1,185.11,86.4Z" transform="translate(-34.33 -37.61)"/><path class="cls-2" d="M164.06,103.13a28.82,28.82,0,0,1-55.46,0,4.43,4.43,0,1,1,8.53-2.42,20,20,0,0,0,38.4,0,4.43,4.43,0,1,1,8.53,2.42Z" transform="translate(-34.33 -37.61)"/><path class="cls-3" d="M140.76,42.05v13.3a4.43,4.43,0,1,1-8.86,0V42.05a4.43,4.43,0,1,1,8.86,0Z" transform="translate(-34.33 -37.61)"/><path class="cls-4" d="M131.45,75.31A4.43,4.43,0,0,1,127,79.75h-.89a4.44,4.44,0,0,1,0-8.87H127A4.43,4.43,0,0,1,131.45,75.31Zm15.08-4.43h-.89a4.43,4.43,0,1,0,0,8.86h.89a4.43,4.43,0,1,0,0-8.86Z" transform="translate(-34.33 -37.61)"/><path class="cls-5" d="M238.33,121.88V232.75a8.87,8.87,0,0,1-8.87,8.86H43.2a8.87,8.87,0,0,1-8.87-8.86V121.88A8.87,8.87,0,0,1,43.2,113H229.46A8.87,8.87,0,0,1,238.33,121.88Z" transform="translate(-34.33 -37.61)"/><path class="cls-6" d="M229.46,113H43.2a8.87,8.87,0,0,0-8.87,8.87V232.75a8.87,8.87,0,0,0,8.87,8.86H229.46a8.87,8.87,0,0,0,8.87-8.86V121.88A8.87,8.87,0,0,0,229.46,113Zm0,119.74H43.2V121.88H229.46V232.75Z" transform="translate(-34.33 -37.61)"/><path class="cls-7" d="M219,159.57v8.87a17.78,17.78,0,0,1-13.31,17.18v9.43a4.43,4.43,0,1,1-8.86,0v-9.43a17.78,17.78,0,0,1-13.31-17.18v-8.87a4.44,4.44,0,0,1,8.87,0v8.87a8.87,8.87,0,0,0,17.74,0v-8.87a4.44,4.44,0,0,1,8.87,0Zm-40.8,26.61a13.32,13.32,0,0,1-13.31,13.3H147.2a4.43,4.43,0,0,1-4.44-4.43V159.57a4.43,4.43,0,0,1,4.44-4.43h13.3a13.31,13.31,0,0,1,13.3,13.3,13.14,13.14,0,0,1-1.72,6.53A13.3,13.3,0,0,1,178.24,186.18Zm-26.61-13.3h8.87a4.44,4.44,0,0,0,0-8.87h-8.87Zm17.74,13.3a4.43,4.43,0,0,0-4.44-4.43h-13.3v8.86h13.3A4.43,4.43,0,0,0,169.37,186.18Zm-80.27,0a13.31,13.31,0,0,1-13.3,13.3H58.06a4.43,4.43,0,0,1-4.44-4.43V159.57a4.43,4.43,0,0,1,4.44-4.43h13.3A13.3,13.3,0,0,1,83,175,13.31,13.31,0,0,1,89.1,186.18Zm-26.61-13.3h8.87a4.44,4.44,0,0,0,0-8.87H62.49Zm17.74,13.3a4.43,4.43,0,0,0-4.43-4.43H62.49v8.86h13.3A4.43,4.43,0,0,0,80.23,186.18Zm52.33-13.3v22.17a4.44,4.44,0,0,1-8.87,0v-8.87H106v8.87a4.44,4.44,0,0,1-8.87,0V172.88a17.74,17.74,0,0,1,35.48,0Zm-8.87,0a8.87,8.87,0,0,0-17.74,0v4.43h17.74Z" transform="translate(-34.33 -37.61)"/><path class="cls-2" d="M105.29,117.44h0A15.52,15.52,0,0,1,89.76,133H85.33a15.52,15.52,0,0,1-15.52-15.52h0a15.52,15.52,0,0,1,15.52-15.52h4.43A15.52,15.52,0,0,1,105.29,117.44Zm82-15.52H182.9a15.52,15.52,0,0,0-15.53,15.52h0A15.52,15.52,0,0,0,182.9,133h4.43a15.52,15.52,0,0,0,15.52-15.52h0A15.52,15.52,0,0,0,187.33,101.92Z" transform="translate(-34.33 -37.61)"/><text class="cls-8" transform="translate(197.47 169.39)">Casa</text><text class="cls-9" transform="translate(177.3 201.18) rotate(-45.47)">em</text></svg>